<svg width="409" height="82" viewBox="0 0 409 82" fill="none" xmlns="http://www.w3.org/2000/svg">
<mask id="path-1-outside-1_44620_30" maskUnits="userSpaceOnUse" x="10" y="1" width="248" height="73" fill="black">
<rect fill="white" x="10" y="1" width="248" height="73"/>
<path d="M12.5 4H46.9V11.75H21V33.05H45.15V40.75H21V70H12.5V4ZM48.7078 70V28.95H57.4078V70H48.7078ZM53.1578 14.9C51.5911 14.9 50.2411 14.35 49.1078 13.25C48.0078 12.1167 47.4578 10.7667 47.4578 9.2C47.4578 7.63333 48.0078 6.28333 49.1078 5.15C50.2411 4.01666 51.5911 3.45 53.1578 3.45C54.1911 3.45 55.1411 3.71666 56.0078 4.25C56.9078 4.78333 57.6245 5.48333 58.1578 6.35C58.6911 7.18333 58.9578 8.13333 58.9578 9.2C58.9578 10.7667 58.3911 12.1167 57.2578 13.25C56.1245 14.35 54.7578 14.9 53.1578 14.9ZM83.657 27.75C86.357 27.75 88.9737 28.3167 91.507 29.45C94.0737 30.5833 96.1737 32.3833 97.807 34.85C99.4737 37.2833 100.307 40.4667 100.307 44.4V70H91.507V46.1C91.507 42.0333 90.557 39.0833 88.657 37.25C86.757 35.3833 84.307 34.45 81.307 34.45C79.3404 34.45 77.4404 35.0167 75.607 36.15C73.807 37.25 72.3237 38.7833 71.157 40.75C69.9904 42.6833 69.407 44.8833 69.407 47.35V70H60.707V28.95H69.407V36.25C69.707 35.1167 70.5237 33.8833 71.857 32.55C73.1904 31.2167 74.8904 30.0833 76.957 29.15C79.0237 28.2167 81.257 27.75 83.657 27.75ZM134.684 70V62C134.417 62.8333 133.634 63.9833 132.334 65.45C131.067 66.9167 129.317 68.25 127.084 69.45C124.884 70.6167 122.284 71.2 119.284 71.2C115.484 71.2 112.034 70.3 108.934 68.5C105.867 66.7 103.417 64.1833 101.584 60.95C99.7836 57.6833 98.8836 53.8667 98.8836 49.5C98.8836 45.1333 99.7836 41.3333 101.584 38.1C103.417 34.8333 105.867 32.3 108.934 30.5C112.034 28.6667 115.484 27.75 119.284 27.75C122.25 27.75 124.817 28.2833 126.984 29.35C129.184 30.4167 130.934 31.65 132.234 33.05C133.567 34.45 134.35 35.65 134.584 36.65V28.95H143.184V70H134.684ZM107.484 49.5C107.484 52.4667 108.134 55.0333 109.434 57.2C110.734 59.3667 112.417 61.05 114.484 62.25C116.584 63.4167 118.817 64 121.184 64C123.717 64 125.984 63.4 127.984 62.2C129.984 61 131.567 59.3167 132.734 57.15C133.9 54.95 134.484 52.4 134.484 49.5C134.484 46.6 133.9 44.0667 132.734 41.9C131.567 39.7 129.984 38 127.984 36.8C125.984 35.5667 123.717 34.95 121.184 34.95C118.817 34.95 116.584 35.55 114.484 36.75C112.417 37.95 110.734 39.6333 109.434 41.8C108.134 43.9667 107.484 46.5333 107.484 49.5ZM167.759 27.75C170.459 27.75 173.075 28.3167 175.609 29.45C178.175 30.5833 180.275 32.3833 181.909 34.85C183.575 37.2833 184.409 40.4667 184.409 44.4V70H175.609V46.1C175.609 42.0333 174.659 39.0833 172.759 37.25C170.859 35.3833 168.409 34.45 165.409 34.45C163.442 34.45 161.542 35.0167 159.709 36.15C157.909 37.25 156.425 38.7833 155.259 40.75C154.092 42.6833 153.509 44.8833 153.509 47.35V70H144.809V28.95H153.509V36.25C153.809 35.1167 154.625 33.8833 155.959 32.55C157.292 31.2167 158.992 30.0833 161.059 29.15C163.125 28.2167 165.359 27.75 167.759 27.75ZM205.135 64C207.735 64 209.835 63.5833 211.435 62.75C213.035 61.9167 214.035 61.3167 214.435 60.95L218.685 67.2C218.352 67.5 217.552 67.9833 216.285 68.65C215.052 69.2833 213.452 69.8667 211.485 70.4C209.552 70.9333 207.352 71.2 204.885 71.2C201.118 71.2 197.618 70.3667 194.385 68.7C191.152 67 188.535 64.5333 186.535 61.3C184.568 58.0667 183.585 54.1167 183.585 49.45C183.585 44.75 184.568 40.8 186.535 37.6C188.535 34.3667 191.152 31.9167 194.385 30.25C197.618 28.5833 201.118 27.75 204.885 27.75C207.318 27.75 209.485 28.05 211.385 28.65C213.285 29.2167 214.852 29.85 216.085 30.55C217.318 31.25 218.135 31.7833 218.535 32.15L214.235 38.4C213.968 38.1333 213.452 37.7333 212.685 37.2C211.952 36.6333 210.952 36.1167 209.685 35.65C208.418 35.1833 206.902 34.95 205.135 34.95C203.002 34.95 200.918 35.5333 198.885 36.7C196.885 37.8333 195.235 39.4833 193.935 41.65C192.635 43.8167 191.985 46.4167 191.985 49.45C191.985 52.4833 192.635 55.1 193.935 57.3C195.235 59.4667 196.885 61.1333 198.885 62.3C200.918 63.4333 203.002 64 205.135 64ZM222.739 51.25C222.772 53.7167 223.306 55.9667 224.339 58C225.372 60.0333 226.906 61.65 228.939 62.85C231.006 64.05 233.539 64.65 236.539 64.65C239.072 64.65 241.222 64.2833 242.989 63.55C244.789 62.7833 246.256 61.8833 247.389 60.85C248.522 59.7833 249.339 58.8333 249.839 58L254.089 63.25C252.989 64.85 251.639 66.25 250.039 67.45C248.472 68.65 246.556 69.5667 244.289 70.2C242.022 70.8667 239.256 71.2 235.989 71.2C231.589 71.2 227.772 70.2667 224.539 68.4C221.339 66.5 218.872 63.8833 217.139 60.55C215.406 57.1833 214.539 53.3333 214.539 49C214.539 45 215.356 41.4 216.989 38.2C218.622 34.9667 220.989 32.4167 224.089 30.55C227.222 28.6833 230.989 27.75 235.389 27.75C239.422 27.75 242.922 28.6 245.889 30.3C248.889 31.9667 251.206 34.3333 252.839 37.4C254.506 40.4667 255.339 44.1333 255.339 48.4C255.339 48.6667 255.322 49.15 255.289 49.85C255.256 50.5167 255.222 50.9833 255.189 51.25H222.739ZM247.039 44.7C247.006 43.3333 246.606 41.8333 245.839 40.2C245.106 38.5667 243.906 37.1667 242.239 36C240.572 34.8333 238.322 34.25 235.489 34.25C232.556 34.25 230.189 34.8167 228.389 35.95C226.622 37.0833 225.322 38.4667 224.489 40.1C223.656 41.7 223.172 43.2333 223.039 44.7H247.039Z"/>
</mask>
<path d="M12.5 4V2H10.5V4H12.5ZM46.9 4H48.9V2H46.9V4ZM46.9 11.75V13.75H48.9V11.75H46.9ZM21 11.75V9.75H19V11.75H21ZM21 33.05H19V35.05H21V33.05ZM45.15 33.05H47.15V31.05H45.15V33.05ZM45.15 40.75V42.75H47.15V40.75H45.15ZM21 40.75V38.75H19V40.75H21ZM21 70V72H23V70H21ZM12.5 70H10.5V72H12.5V70ZM12.5 6H46.9V2H12.5V6ZM44.9 4V11.75H48.9V4H44.9ZM46.9 9.75H21V13.75H46.9V9.75ZM19 11.75V33.05H23V11.75H19ZM21 35.05H45.15V31.05H21V35.05ZM43.15 33.05V40.75H47.15V33.05H43.15ZM45.15 38.75H21V42.75H45.15V38.75ZM19 40.75V70H23V40.75H19ZM21 68H12.5V72H21V68ZM14.5 70V4H10.5V70H14.5ZM48.7078 70H46.7078V72H48.7078V70ZM48.7078 28.95V26.95H46.7078V28.95H48.7078ZM57.4078 28.95H59.4078V26.95H57.4078V28.95ZM57.4078 70V72H59.4078V70H57.4078ZM49.1078 13.25L47.6727 14.6429L47.6934 14.6644L47.7149 14.6852L49.1078 13.25ZM49.1078 5.15L47.6936 3.73578L47.683 3.74634L47.6726 3.75705L49.1078 5.15ZM56.0078 4.25L54.9596 5.95331L54.9738 5.96207L54.9882 5.97058L56.0078 4.25ZM58.1578 6.35L56.4545 7.39819L56.4638 7.41323L56.4733 7.42811L58.1578 6.35ZM57.2578 13.25L58.6508 14.6852L58.6615 14.6748L58.672 14.6642L57.2578 13.25ZM50.7078 70V28.95H46.7078V70H50.7078ZM48.7078 30.95H57.4078V26.95H48.7078V30.95ZM55.4078 28.95V70H59.4078V28.95H55.4078ZM57.4078 68H48.7078V72H57.4078V68ZM53.1578 12.9C52.116 12.9 51.2643 12.5559 50.5008 11.8148L47.7149 14.6852C49.218 16.1441 51.0663 16.9 53.1578 16.9V12.9ZM50.543 11.857C49.8019 11.0935 49.4578 10.2419 49.4578 9.2H45.4578C45.4578 11.2915 46.2137 13.1398 47.6727 14.6429L50.543 11.857ZM49.4578 9.2C49.4578 8.15814 49.8019 7.30646 50.543 6.54295L47.6726 3.75705C46.2137 5.2602 45.4578 7.10853 45.4578 9.2H49.4578ZM50.522 6.56421C51.29 5.79626 52.1351 5.45 53.1578 5.45V1.45C51.0472 1.45 49.1923 2.23706 47.6936 3.73578L50.522 6.56421ZM53.1578 5.45C53.8271 5.45 54.4133 5.61709 54.9596 5.95331L57.056 2.54668C55.869 1.81623 54.5552 1.45 53.1578 1.45V5.45ZM54.9882 5.97058C55.6173 6.34336 56.0961 6.81572 56.4545 7.39819L59.8611 5.30181C59.1529 4.15095 58.1984 3.2233 57.0274 2.52941L54.9882 5.97058ZM56.4733 7.42811C56.7845 7.91434 56.9578 8.48433 56.9578 9.2H60.9578C60.9578 7.78233 60.5978 6.45233 59.8424 5.27189L56.4733 7.42811ZM56.9578 9.2C56.9578 10.2227 56.6115 11.0678 55.8436 11.8358L58.672 14.6642C60.1707 13.1655 60.9578 11.3106 60.9578 9.2H56.9578ZM55.8649 11.8148C55.1101 12.5473 54.2453 12.9 53.1578 12.9V16.9C55.2703 16.9 57.1388 16.1526 58.6508 14.6852L55.8649 11.8148ZM91.507 29.45L90.6903 31.2757L90.6992 31.2796L91.507 29.45ZM97.807 34.85L96.1395 35.9542L96.1481 35.9673L96.157 35.9802L97.807 34.85ZM100.307 70V72H102.307V70H100.307ZM91.507 70H89.507V72H91.507V70ZM88.657 37.25L87.2554 38.6767L87.2618 38.683L87.2683 38.6892L88.657 37.25ZM75.607 36.15L76.6499 37.8566L76.6587 37.8512L75.607 36.15ZM71.157 40.75L72.8694 41.7833L72.8733 41.7769L72.8771 41.7704L71.157 40.75ZM69.407 70V72H71.407V70H69.407ZM60.707 70H58.707V72H60.707V70ZM60.707 28.95V26.95H58.707V28.95H60.707ZM69.407 28.95H71.407V26.95H69.407V28.95ZM69.407 36.25H67.407L71.3404 36.7618L69.407 36.25ZM71.857 32.55L73.2712 33.9642L71.857 32.55ZM76.957 29.15L76.1339 27.3273L76.957 29.15ZM83.657 29.75C86.0676 29.75 88.4066 30.254 90.6903 31.2756L92.3238 27.6244C89.5408 26.3794 86.6465 25.75 83.657 25.75V29.75ZM90.6992 31.2796C92.8963 32.2497 94.7053 33.7884 96.1395 35.9542L99.4746 33.7458C97.6421 30.9783 95.2511 28.9169 92.3149 27.6204L90.6992 31.2796ZM96.157 35.9802C97.5309 37.9861 98.307 40.7378 98.307 44.4H102.307C102.307 40.1955 101.416 36.5805 99.4571 33.7198L96.157 35.9802ZM98.307 44.4V70H102.307V44.4H98.307ZM100.307 68H91.507V72H100.307V68ZM93.507 70V46.1H89.507V70H93.507ZM93.507 46.1C93.507 41.7788 92.504 38.1828 90.0458 35.8108L87.2683 38.6892C88.61 39.9839 89.507 42.2879 89.507 46.1H93.507ZM90.0587 35.8233C87.7362 33.5416 84.7593 32.45 81.307 32.45V36.45C83.8548 36.45 85.7778 37.225 87.2554 38.6767L90.0587 35.8233ZM81.307 32.45C78.9336 32.45 76.6733 33.1395 74.5554 34.4488L76.6587 37.8512C78.2074 36.8938 79.7471 36.45 81.307 36.45V32.45ZM74.5641 34.4434C72.4628 35.7276 70.7557 37.5065 69.4369 39.7296L72.8771 41.7704C73.8917 40.0601 75.1512 38.7724 76.6499 37.8566L74.5641 34.4434ZM69.4447 39.7167C68.0726 41.9903 67.407 44.5539 67.407 47.35H71.407C71.407 45.2128 71.9081 43.3764 72.8694 41.7833L69.4447 39.7167ZM67.407 47.35V70H71.407V47.35H67.407ZM69.407 68H60.707V72H69.407V68ZM62.707 70V28.95H58.707V70H62.707ZM60.707 30.95H69.407V26.95H60.707V30.95ZM67.407 28.95V36.25H71.407V28.95H67.407ZM71.3404 36.7618C71.5109 36.1178 72.0508 35.1847 73.2712 33.9642L70.4428 31.1358C68.9966 32.582 67.9032 34.1155 67.4736 35.7382L71.3404 36.7618ZM73.2712 33.9642C74.4031 32.8323 75.8902 31.8263 77.7802 30.9727L76.1339 27.3273C73.8905 28.3404 71.9776 29.601 70.4428 31.1358L73.2712 33.9642ZM77.7802 30.9727C79.5732 30.163 81.524 29.75 83.657 29.75V25.75C80.9901 25.75 78.4742 26.2703 76.1339 27.3273L77.7802 30.9727ZM134.684 70H132.684V72H134.684V70ZM134.684 62H136.684L132.779 61.3904L134.684 62ZM132.334 65.45L130.837 64.1234L130.828 64.133L130.82 64.1428L132.334 65.45ZM127.084 69.45L128.021 71.2169L128.03 71.2118L127.084 69.45ZM108.934 68.5L107.921 70.2249L107.929 70.2296L108.934 68.5ZM101.584 60.95L99.8319 61.9152L99.8378 61.9259L99.8438 61.9365L101.584 60.95ZM101.584 38.1L99.8395 37.1212L99.8361 37.1272L101.584 38.1ZM108.934 30.5L109.946 32.2248L109.952 32.2215L108.934 30.5ZM126.984 29.35L126.1 31.1444L126.111 31.1496L126.984 29.35ZM132.234 33.05L130.768 34.4109L130.777 34.4202L130.785 34.4293L132.234 33.05ZM134.584 36.65L132.636 37.1045L136.584 36.65H134.584ZM134.584 28.95V26.95H132.584V28.95H134.584ZM143.184 28.95H145.184V26.95H143.184V28.95ZM143.184 70V72H145.184V70H143.184ZM109.434 57.2L107.719 58.229L109.434 57.2ZM114.484 62.25L113.479 63.9796L113.496 63.9891L113.512 63.9983L114.484 62.25ZM132.734 57.15L134.495 58.0982L134.501 58.087L132.734 57.15ZM132.734 41.9L130.967 42.837L130.973 42.8482L132.734 41.9ZM127.984 36.8L126.934 38.5023L126.944 38.5087L126.955 38.515L127.984 36.8ZM114.484 36.75L113.491 35.0135L113.479 35.0204L114.484 36.75ZM109.434 41.8L107.719 40.771L109.434 41.8ZM136.684 70V62H132.684V70H136.684ZM132.779 61.3904C132.651 61.7901 132.126 62.6694 130.837 64.1234L133.83 66.7766C135.142 65.2972 136.183 63.8765 136.588 62.6096L132.779 61.3904ZM130.82 64.1428C129.754 65.3773 128.218 66.5701 126.137 67.6882L128.03 71.2118C130.416 69.9299 132.38 68.456 133.847 66.7572L130.82 64.1428ZM126.147 67.6831C124.289 68.6683 122.023 69.2 119.284 69.2V73.2C122.544 73.2 125.479 72.565 128.021 71.2169L126.147 67.6831ZM119.284 69.2C115.814 69.2 112.714 68.3826 109.938 66.7704L107.929 70.2296C111.353 72.2174 115.153 73.2 119.284 73.2V69.2ZM109.946 66.7752C107.196 65.1613 104.992 62.9055 103.323 59.9635L99.8438 61.9365C101.842 65.4611 104.537 68.2387 107.921 70.2248L109.946 66.7752ZM103.335 59.9848C101.724 57.0606 100.884 53.587 100.884 49.5H96.8836C96.8836 54.1463 97.8432 58.306 99.8319 61.9152L103.335 59.9848ZM100.884 49.5C100.884 45.4123 101.724 41.9592 103.331 39.0728L99.8361 37.1272C97.843 40.7075 96.8836 44.8543 96.8836 49.5H100.884ZM103.328 39.0788C104.997 36.1041 107.202 33.8357 109.946 32.2248L107.921 28.7752C104.532 30.7643 101.837 33.5626 99.8395 37.1212L103.328 39.0788ZM109.952 32.2215C112.726 30.5807 115.821 29.75 119.284 29.75V25.75C115.146 25.75 111.341 26.7527 107.916 28.7785L109.952 32.2215ZM119.284 29.75C122.013 29.75 124.264 30.2403 126.1 31.1443L127.867 27.5557C125.37 26.3263 122.488 25.75 119.284 25.75V29.75ZM126.111 31.1496C128.148 32.137 129.677 33.2356 130.768 34.4109L133.699 31.6891C132.191 30.0644 130.22 28.6963 127.856 27.5504L126.111 31.1496ZM130.785 34.4293C132.055 35.7628 132.528 36.6412 132.636 37.1045L136.531 36.1955C136.173 34.6587 135.079 33.1372 133.682 31.6707L130.785 34.4293ZM136.584 36.65V28.95H132.584V36.65H136.584ZM134.584 30.95H143.184V26.95H134.584V30.95ZM141.184 28.95V70H145.184V28.95H141.184ZM143.184 68H134.684V72H143.184V68ZM105.484 49.5C105.484 52.7653 106.202 55.701 107.719 58.229L111.149 56.171C110.065 54.3657 109.484 52.168 109.484 49.5H105.484ZM107.719 58.229C109.182 60.6683 111.104 62.6001 113.479 63.9796L115.488 60.5204C113.73 59.4999 112.285 58.065 111.149 56.171L107.719 58.229ZM113.512 63.9983C115.905 65.3274 118.472 66 121.184 66V62C119.162 62 117.262 61.5059 115.455 60.5017L113.512 63.9983ZM121.184 66C124.047 66 126.675 65.3174 129.013 63.915L126.955 60.485C125.292 61.4826 123.387 62 121.184 62V66ZM129.013 63.915C131.338 62.5195 133.167 60.5635 134.495 58.0982L130.973 56.2018C129.967 58.0699 128.629 59.4805 126.955 60.485L129.013 63.915ZM134.501 58.087C135.844 55.5542 136.484 52.6727 136.484 49.5H132.484C132.484 52.1272 131.957 54.3458 130.967 56.213L134.501 58.087ZM136.484 49.5C136.484 46.3281 135.844 43.4578 134.495 40.9518L130.973 42.8482C131.957 44.6755 132.484 46.8719 132.484 49.5H136.484ZM134.501 40.963C133.175 38.464 131.346 36.4851 129.013 35.085L126.955 38.515C128.621 39.5149 129.959 40.936 130.967 42.837L134.501 40.963ZM129.033 35.0977C126.693 33.6545 124.058 32.95 121.184 32.95V36.95C123.376 36.95 125.274 37.4788 126.934 38.5023L129.033 35.0977ZM121.184 32.95C118.461 32.95 115.887 33.6448 113.491 35.0135L115.476 38.4865C117.281 37.4552 119.173 36.95 121.184 36.95V32.95ZM113.479 35.0204C111.104 36.3999 109.182 38.3317 107.719 40.771L111.149 42.829C112.285 40.935 113.73 39.5001 115.488 38.4796L113.479 35.0204ZM107.719 40.771C106.202 43.299 105.484 46.2347 105.484 49.5H109.484C109.484 46.832 110.065 44.6343 111.149 42.829L107.719 40.771ZM175.609 29.45L174.792 31.2757L174.801 31.2796L175.609 29.45ZM181.909 34.85L180.241 35.9542L180.25 35.9673L180.259 35.9802L181.909 34.85ZM184.409 70V72H186.409V70H184.409ZM175.609 70H173.609V72H175.609V70ZM172.759 37.25L171.357 38.6767L171.363 38.683L171.37 38.6892L172.759 37.25ZM159.709 36.15L160.752 37.8566L160.76 37.8512L159.709 36.15ZM155.259 40.75L156.971 41.7833L156.975 41.7769L156.979 41.7704L155.259 40.75ZM153.509 70V72H155.509V70H153.509ZM144.809 70H142.809V72H144.809V70ZM144.809 28.95V26.95H142.809V28.95H144.809ZM153.509 28.95H155.509V26.95H153.509V28.95ZM153.509 36.25H151.509L155.442 36.7618L153.509 36.25ZM155.959 32.55L157.373 33.9642L155.959 32.55ZM161.059 29.15L160.235 27.3273L161.059 29.15ZM167.759 29.75C170.169 29.75 172.508 30.254 174.792 31.2756L176.425 27.6244C173.642 26.3794 170.748 25.75 167.759 25.75V29.75ZM174.801 31.2796C176.998 32.2497 178.807 33.7884 180.241 35.9542L183.576 33.7458C181.744 30.9783 179.353 28.9169 176.416 27.6204L174.801 31.2796ZM180.259 35.9802C181.632 37.9861 182.409 40.7378 182.409 44.4H186.409C186.409 40.1955 185.518 36.5805 183.559 33.7198L180.259 35.9802ZM182.409 44.4V70H186.409V44.4H182.409ZM184.409 68H175.609V72H184.409V68ZM177.609 70V46.1H173.609V70H177.609ZM177.609 46.1C177.609 41.7788 176.606 38.1828 174.147 35.8108L171.37 38.6892C172.712 39.9839 173.609 42.2879 173.609 46.1H177.609ZM174.16 35.8233C171.838 33.5416 168.861 32.45 165.409 32.45V36.45C167.956 36.45 169.879 37.225 171.357 38.6767L174.16 35.8233ZM165.409 32.45C163.035 32.45 160.775 33.1395 158.657 34.4488L160.76 37.8512C162.309 36.8938 163.849 36.45 165.409 36.45V32.45ZM158.666 34.4434C156.564 35.7276 154.857 37.5065 153.538 39.7296L156.979 41.7704C157.993 40.0601 159.253 38.7724 160.751 37.8566L158.666 34.4434ZM153.546 39.7167C152.174 41.9903 151.509 44.5539 151.509 47.35H155.509C155.509 45.2128 156.01 43.3764 156.971 41.7833L153.546 39.7167ZM151.509 47.35V70H155.509V47.35H151.509ZM153.509 68H144.809V72H153.509V68ZM146.809 70V28.95H142.809V70H146.809ZM144.809 30.95H153.509V26.95H144.809V30.95ZM151.509 28.95V36.25H155.509V28.95H151.509ZM155.442 36.7618C155.612 36.1178 156.152 35.1847 157.373 33.9642L154.544 31.1358C153.098 32.582 152.005 34.1155 151.575 35.7382L155.442 36.7618ZM157.373 33.9642C158.505 32.8323 159.992 31.8263 161.882 30.9727L160.235 27.3273C157.992 28.3404 156.079 29.601 154.544 31.1358L157.373 33.9642ZM161.882 30.9727C163.675 30.163 165.626 29.75 167.759 29.75V25.75C165.092 25.75 162.576 26.2703 160.235 27.3273L161.882 30.9727ZM211.435 62.75L210.511 60.9762V60.9762L211.435 62.75ZM214.435 60.95L216.089 59.8254L214.789 57.9129L213.084 59.4757L214.435 60.95ZM218.685 67.2L220.023 68.6866L221.321 67.5189L220.339 66.0754L218.685 67.2ZM216.285 68.65L217.199 70.4291L217.208 70.4245L217.217 70.4198L216.285 68.65ZM211.485 70.4L210.962 68.4697L210.953 68.472L211.485 70.4ZM194.385 68.7L193.454 70.4702L193.462 70.474L193.469 70.4777L194.385 68.7ZM186.535 61.3L184.826 62.3393L184.83 62.3457L184.834 62.3521L186.535 61.3ZM186.535 37.6L184.834 36.5479L184.831 36.5528L186.535 37.6ZM194.385 30.25L195.302 32.0277L194.385 30.25ZM211.385 28.65L210.783 30.5572L210.798 30.562L210.814 30.5666L211.385 28.65ZM218.535 32.15L220.183 33.2836L221.169 31.8508L219.887 30.6757L218.535 32.15ZM214.235 38.4L212.821 39.8142L214.521 41.5138L215.883 39.5336L214.235 38.4ZM212.685 37.2L211.462 38.7826L211.502 38.8132L211.543 38.8418L212.685 37.2ZM209.685 35.65L208.994 37.5267L209.685 35.65ZM198.885 36.7L199.871 38.4401L199.88 38.4347L198.885 36.7ZM193.935 41.65L192.22 40.621L193.935 41.65ZM193.935 57.3L192.213 58.3175L192.22 58.329L193.935 57.3ZM198.885 62.3L197.877 64.0276L197.894 64.0374L197.911 64.047L198.885 62.3ZM205.135 66C207.924 66 210.376 65.5567 212.359 64.5238L210.511 60.9762C209.294 61.6099 207.546 62 205.135 62V66ZM212.359 64.5238C213.178 64.0974 213.867 63.7186 214.414 63.39C214.929 63.0809 215.428 62.7531 215.787 62.4243L213.084 59.4757C213.085 59.4749 213.07 59.488 213.034 59.5159C212.999 59.543 212.951 59.5785 212.886 59.623C212.756 59.7126 212.582 59.8245 212.356 59.96C211.904 60.2314 211.293 60.5692 210.511 60.9762L212.359 64.5238ZM212.781 62.0746L217.031 68.3246L220.339 66.0754L216.089 59.8254L212.781 62.0746ZM217.347 65.7134C217.351 65.7096 217.315 65.742 217.21 65.8141C217.112 65.8823 216.977 65.9691 216.801 66.0757C216.447 66.2893 215.968 66.5566 215.354 66.8802L217.217 70.4198C218.435 69.7788 219.47 69.184 220.023 68.6866L217.347 65.7134ZM215.372 66.8709C214.306 67.4181 212.85 67.9576 210.962 68.4697L212.009 72.3303C214.054 71.7757 215.798 71.1485 217.199 70.4291L215.372 66.8709ZM210.953 68.472C209.228 68.9481 207.212 69.2 204.885 69.2V73.2C207.492 73.2 209.876 72.9186 212.017 72.328L210.953 68.472ZM204.885 69.2C201.426 69.2 198.241 68.4376 195.302 66.9223L193.469 70.4777C196.996 72.2957 200.811 73.2 204.885 73.2V69.2ZM195.316 66.9298C192.412 65.403 190.056 63.1903 188.236 60.2479L184.834 62.3521C187.014 65.8764 189.892 68.597 193.454 70.4702L195.316 66.9298ZM188.244 60.2607C186.508 57.4061 185.585 53.8353 185.585 49.45H181.585C181.585 54.3981 182.629 58.7272 184.826 62.3393L188.244 60.2607ZM185.585 49.45C185.585 45.0274 186.509 41.4619 188.239 38.6472L184.831 36.5528C182.628 40.1381 181.585 44.4726 181.585 49.45H185.585ZM188.236 38.6521C190.054 35.7128 192.406 33.5205 195.302 32.0277L193.469 28.4723C189.898 30.3129 187.016 33.0206 184.834 36.5479L188.236 38.6521ZM195.302 32.0277C198.241 30.5124 201.426 29.75 204.885 29.75V25.75C200.811 25.75 196.996 26.6543 193.469 28.4723L195.302 32.0277ZM204.885 29.75C207.158 29.75 209.115 30.0305 210.783 30.5572L211.987 26.7428C209.855 26.0695 207.479 25.75 204.885 25.75V29.75ZM210.814 30.5666C212.621 31.1057 214.036 31.6869 215.098 32.2894L217.072 28.8106C215.667 28.0131 213.949 27.3276 211.957 26.7334L210.814 30.5666ZM215.098 32.2894C216.345 32.9969 216.972 33.4306 217.184 33.6243L219.887 30.6757C219.298 30.136 218.292 29.5031 217.072 28.8106L215.098 32.2894ZM216.887 31.0164L212.587 37.2664L215.883 39.5336L220.183 33.2836L216.887 31.0164ZM215.649 36.9858C215.243 36.579 214.591 36.0891 213.827 35.5582L211.543 38.8418C212.313 39.3775 212.694 39.6877 212.821 39.8142L215.649 36.9858ZM213.908 35.6174C212.958 34.8835 211.755 34.2813 210.377 33.7733L208.994 37.5267C210.148 37.952 210.945 38.3831 211.462 38.7826L213.908 35.6174ZM210.377 33.7733C208.832 33.2042 207.069 32.95 205.135 32.95V36.95C206.735 36.95 208.005 37.1624 208.994 37.5267L210.377 33.7733ZM205.135 32.95C202.619 32.95 200.195 33.6424 197.89 34.9653L199.88 38.4347C201.642 37.4242 203.385 36.95 205.135 36.95V32.95ZM197.899 34.96C195.57 36.2799 193.68 38.1885 192.22 40.621L195.65 42.679C196.791 40.7782 198.201 39.3867 199.871 38.44L197.899 34.96ZM192.22 40.621C190.699 43.1556 189.985 46.1272 189.985 49.45H193.985C193.985 46.7062 194.571 44.4777 195.65 42.679L192.22 40.621ZM189.985 49.45C189.985 52.7739 190.7 55.7561 192.213 58.3175L195.657 56.2825C194.571 54.4439 193.985 52.1928 193.985 49.45H189.985ZM192.22 58.329C193.677 60.7573 195.561 62.6761 197.877 64.0276L199.893 60.5724C198.21 59.5906 196.793 58.176 195.65 56.271L192.22 58.329ZM197.911 64.047C200.215 65.3307 202.63 66 205.135 66V62C203.373 62 201.622 61.536 199.859 60.553L197.911 64.047ZM222.739 51.25V49.25H220.712L220.739 51.277L222.739 51.25ZM224.339 58L222.556 58.9061L224.339 58ZM228.939 62.85L227.923 64.5724L227.929 64.576L227.935 64.5796L228.939 62.85ZM242.989 63.55L243.756 65.3972L243.764 65.3937L243.773 65.39L242.989 63.55ZM247.389 60.85L248.737 62.3279L248.748 62.3172L248.76 62.3064L247.389 60.85ZM249.839 58L251.394 56.7416L249.595 54.5197L248.124 56.971L249.839 58ZM254.089 63.25L255.737 64.3831L256.583 63.1524L255.644 61.9916L254.089 63.25ZM250.039 67.45L248.839 65.85L248.831 65.8561L248.823 65.8622L250.039 67.45ZM244.289 70.2L243.751 68.2738L243.738 68.2774L243.725 68.2813L244.289 70.2ZM224.539 68.4L223.518 70.1197L223.529 70.126L223.539 70.1321L224.539 68.4ZM217.139 60.55L215.361 61.4655L215.365 61.4727L217.139 60.55ZM216.989 38.2L218.77 39.1092L218.774 39.1018L216.989 38.2ZM224.089 30.55L223.065 28.8318L223.057 28.8366L224.089 30.55ZM245.889 30.3L244.895 32.0353L244.906 32.0419L244.918 32.0483L245.889 30.3ZM252.839 37.4L251.074 38.3402L251.078 38.3476L251.082 38.355L252.839 37.4ZM255.289 49.85L257.287 49.9499L257.287 49.9451L255.289 49.85ZM255.189 51.25V53.25H256.955L257.174 51.4981L255.189 51.25ZM247.039 44.7V46.7H249.088L249.038 44.6512L247.039 44.7ZM245.839 40.2L244.015 41.0192L244.021 41.0346L244.029 41.0498L245.839 40.2ZM242.239 36L241.092 37.6385L241.092 37.6385L242.239 36ZM228.389 35.95L227.323 34.2575L227.316 34.262L227.309 34.2666L228.389 35.95ZM224.489 40.1L226.263 41.0239L226.267 41.0164L226.271 41.0089L224.489 40.1ZM223.039 44.7L221.047 44.5189L220.849 46.7H223.039V44.7ZM220.739 51.277C220.776 54.024 221.373 56.5784 222.556 58.9061L226.122 57.0939C225.238 55.3549 224.768 53.4093 224.739 51.223L220.739 51.277ZM222.556 58.9061C223.768 61.2913 225.573 63.186 227.923 64.5724L229.956 61.1276C228.238 60.114 226.977 58.7753 226.122 57.0939L222.556 58.9061ZM227.935 64.5796C230.375 65.9966 233.275 66.65 236.539 66.65V62.65C233.803 62.65 231.636 62.1034 229.943 61.1204L227.935 64.5796ZM236.539 66.65C239.255 66.65 241.681 66.2584 243.756 65.3972L242.222 61.7028C240.764 62.3083 238.89 62.65 236.539 62.65V66.65ZM243.773 65.39C245.725 64.5584 247.398 63.548 248.737 62.3279L246.042 59.3721C245.113 60.2186 243.853 61.0083 242.205 61.71L243.773 65.39ZM248.76 62.3064C249.957 61.1796 250.92 60.0853 251.554 59.029L248.124 56.971C247.758 57.5814 247.088 58.387 246.018 59.3936L248.76 62.3064ZM248.285 59.2584L252.535 64.5084L255.644 61.9916L251.394 56.7416L248.285 59.2584ZM252.441 62.1169C251.468 63.5326 250.271 64.7763 248.839 65.85L251.239 69.05C253.007 67.7237 254.51 66.1674 255.737 64.3831L252.441 62.1169ZM248.823 65.8622C247.494 66.8805 245.818 67.6961 243.751 68.2738L244.827 72.1262C247.293 71.4372 249.451 70.4195 251.255 69.0378L248.823 65.8622ZM243.725 68.2813C241.696 68.8779 239.132 69.2 235.989 69.2V73.2C239.379 73.2 242.349 72.8555 244.853 72.1187L243.725 68.2813ZM235.989 69.2C231.877 69.2 228.418 68.33 225.539 66.6679L223.539 70.1321C227.127 72.2033 231.301 73.2 235.989 73.2V69.2ZM225.56 66.6803C222.684 64.9725 220.477 62.6333 218.913 59.6273L215.365 61.4727C217.268 65.1334 219.994 68.0275 223.518 70.1197L225.56 66.6803ZM218.917 59.6345C217.349 56.5894 216.539 53.0611 216.539 49H212.539C212.539 53.6055 213.462 57.7772 215.361 61.4655L218.917 59.6345ZM216.539 49C216.539 45.2798 217.296 41.997 218.77 39.1092L215.208 37.2908C213.415 40.803 212.539 44.7202 212.539 49H216.539ZM218.774 39.1018C220.238 36.2041 222.344 33.9356 225.121 32.2634L223.057 28.8366C219.634 30.8977 217.007 33.7292 215.204 37.2982L218.774 39.1018ZM225.113 32.2682C227.878 30.6207 231.275 29.75 235.389 29.75V25.75C230.703 25.75 226.567 26.746 223.065 28.8318L225.113 32.2682ZM235.389 29.75C239.137 29.75 242.281 30.5376 244.895 32.0353L246.883 28.5647C243.564 26.6624 239.708 25.75 235.389 25.75V29.75ZM244.918 32.0483C247.576 33.5253 249.619 35.6093 251.074 38.3402L254.604 36.4598C252.792 33.0574 250.202 30.408 246.86 28.5517L244.918 32.0483ZM251.082 38.355C252.557 41.0702 253.339 44.3935 253.339 48.4H257.339C257.339 43.8732 256.454 39.8632 254.596 36.445L251.082 38.355ZM253.339 48.4C253.339 48.6129 253.325 49.0517 253.291 49.7549L257.287 49.9451C257.32 49.2483 257.339 48.7205 257.339 48.4H253.339ZM253.292 49.7501C253.258 50.4185 253.228 50.8175 253.205 51.0019L257.174 51.4981C257.217 51.1492 257.253 50.6149 257.287 49.9499L253.292 49.7501ZM255.189 49.25H222.739V53.25H255.189V49.25ZM249.038 44.6512C248.997 42.9338 248.498 41.1581 247.65 39.3502L244.029 41.0498C244.713 42.5085 245.015 43.7328 245.04 44.7488L249.038 44.6512ZM247.664 39.3808C246.763 37.3753 245.307 35.7064 243.386 34.3615L241.092 37.6385C242.504 38.627 243.448 39.758 244.015 41.0192L247.664 39.3808ZM243.386 34.3615C241.275 32.8835 238.576 32.25 235.489 32.25V36.25C238.068 36.25 239.87 36.7832 241.092 37.6385L243.386 34.3615ZM235.489 32.25C232.316 32.25 229.542 32.8608 227.323 34.2575L229.455 37.6425C230.836 36.7726 232.795 36.25 235.489 36.25V32.25ZM227.309 34.2666C225.288 35.5632 223.724 37.1985 222.708 39.1911L226.271 41.0089C226.921 39.7348 227.957 38.6035 229.469 37.6334L227.309 34.2666ZM222.715 39.1761C221.788 40.9567 221.209 42.7416 221.047 44.5189L225.031 44.8811C225.136 43.7251 225.524 42.4433 226.263 41.0239L222.715 39.1761ZM223.039 46.7H247.039V42.7H223.039V46.7Z" fill="#E92929" mask="url(#path-1-outside-1_44620_30)"/>
<path d="M300.75 72H282.8L271.6 25.95H274.3L263.1 72H245.05L230 6H247.15L255.1 52.3H254.9L267.3 6H278.55L291 52.3H290.8L298.75 6H315.9L300.75 72ZM315.204 72V30.95H330.404V72H315.204ZM323.004 22.5C320.604 22.5 318.571 21.6667 316.904 20C315.237 18.3 314.404 16.2833 314.404 13.95C314.404 11.6167 315.237 9.6 316.904 7.9C318.604 6.16666 320.637 5.29999 323.004 5.29999C324.571 5.29999 326.004 5.7 327.304 6.5C328.604 7.26666 329.654 8.3 330.454 9.6C331.254 10.9 331.654 12.35 331.654 13.95C331.654 16.2833 330.804 18.3 329.104 20C327.404 21.6667 325.371 22.5 323.004 22.5ZM349.276 29.75C351.976 29.75 354.442 29.9833 356.676 30.45C358.909 30.8833 360.776 31.3833 362.276 31.95C363.809 32.5167 364.792 32.9833 365.226 33.35L360.276 42.3C359.642 41.8333 358.459 41.2333 356.726 40.5C355.026 39.7667 353.126 39.4 351.026 39.4C349.426 39.4 348.076 39.65 346.976 40.15C345.876 40.6167 345.326 41.3667 345.326 42.4C345.326 43.4333 345.926 44.2667 347.126 44.9C348.359 45.5 350.126 46.0333 352.426 46.5C354.426 46.9 356.459 47.5333 358.526 48.4C360.592 49.2667 362.309 50.55 363.676 52.25C365.076 53.9167 365.776 56.15 365.776 58.95C365.776 61.8167 365.159 64.1833 363.926 66.05C362.692 67.9167 361.059 69.3667 359.026 70.4C356.992 71.4333 354.792 72.15 352.426 72.55C350.059 72.9833 347.759 73.2 345.526 73.2C342.392 73.2 339.659 72.9167 337.326 72.35C335.026 71.7833 333.159 71.1333 331.726 70.4C330.292 69.6667 329.292 69.0833 328.726 68.65L333.626 58.65C334.492 59.3833 335.909 60.2167 337.876 61.15C339.842 62.05 341.926 62.5 344.126 62.5C346.259 62.5 347.909 62.1833 349.076 61.55C350.242 60.9167 350.826 60.0833 350.826 59.05C350.826 58.2167 350.542 57.55 349.976 57.05C349.409 56.55 348.609 56.1167 347.576 55.75C346.542 55.3833 345.292 55.05 343.826 54.75C342.492 54.4833 341.076 54.0667 339.576 53.5C338.076 52.9333 336.659 52.1667 335.326 51.2C333.992 50.2 332.909 48.95 332.076 47.45C331.242 45.95 330.826 44.1333 330.826 42C330.826 39.2667 331.709 37 333.476 35.2C335.242 33.4 337.526 32.05 340.326 31.15C343.126 30.2167 346.109 29.75 349.276 29.75ZM375.945 54.7C376.045 56.1667 376.511 57.4667 377.345 58.6C378.178 59.7333 379.328 60.6333 380.795 61.3C382.295 61.9333 384.061 62.25 386.095 62.25C388.028 62.25 389.761 62.05 391.295 61.65C392.861 61.25 394.211 60.75 395.345 60.15C396.511 59.55 397.411 58.9333 398.045 58.3L403.945 67.7C403.111 68.6 401.928 69.4833 400.395 70.35C398.895 71.1833 396.911 71.8667 394.445 72.4C391.978 72.9333 388.861 73.2 385.095 73.2C380.561 73.2 376.528 72.35 372.995 70.65C369.461 68.95 366.678 66.45 364.645 63.15C362.611 59.85 361.595 55.8167 361.595 51.05C361.595 47.05 362.461 43.45 364.195 40.25C365.961 37.0167 368.511 34.4667 371.845 32.6C375.178 30.7 379.195 29.75 383.895 29.75C388.361 29.75 392.228 30.5667 395.495 32.2C398.795 33.8333 401.328 36.2667 403.095 39.5C404.895 42.7 405.795 46.7 405.795 51.5C405.795 51.7667 405.778 52.3 405.745 53.1C405.745 53.9 405.711 54.4333 405.645 54.7H375.945ZM391.495 46.75C391.461 45.6833 391.178 44.6333 390.645 43.6C390.111 42.5333 389.311 41.6667 388.245 41C387.178 40.3 385.811 39.95 384.145 39.95C382.478 39.95 381.061 40.2833 379.895 40.95C378.761 41.5833 377.895 42.4167 377.295 43.45C376.695 44.4833 376.361 45.5833 376.295 46.75H391.495Z" fill="#49AA26"/>
</svg>
