<svg width="32px" height="32px" viewBox="0 0 0.96 0.96" fill="none" xmlns="http://www.w3.org/2000/svg"><path d="M0.391 0.212A0.345 0.345 0 0 1 0.48 0.2c0.15 0 0.263 0.098 0.329 0.178a0.158 0.158 0 0 1 0 0.205c-0.008 0.009 -0.016 0.019 -0.025 0.028M0.5 0.362a0.12 0.12 0 0 1 0.098 0.098M0.12 0.12l0.72 0.72m-0.38 -0.242A0.12 0.12 0 0 1 0.367 0.52M0.174 0.351c-0.008 0.009 -0.016 0.018 -0.023 0.026a0.158 0.158 0 0 0 0 0.205C0.217 0.662 0.33 0.76 0.48 0.76a0.345 0.345 0 0 0 0.091 -0.012" stroke="#ffffff" stroke-width="0.06" stroke-linecap="round" stroke-linejoin="round"/></svg>