<svg width="100" height="100" viewBox="0 0 100 100" fill="none" xmlns="http://www.w3.org/2000/svg">
<mask id="path-1-outside-1_44861_9" maskUnits="userSpaceOnUse" x="2" y="18" width="32" height="57" fill="black">
<rect fill="white" x="2" y="18" width="32" height="57"/>
<path d="M4.4 20.2H31.92V26.4H11.2V43.44H30.52V49.6H11.2V73H4.4V20.2Z"/>
</mask>
<path d="M4.4 20.2V18.2H2.4V20.2H4.4ZM31.92 20.2H33.92V18.2H31.92V20.2ZM31.92 26.4V28.4H33.92V26.4H31.92ZM11.2 26.4V24.4H9.2V26.4H11.2ZM11.2 43.44H9.2V45.44H11.2V43.44ZM30.52 43.44H32.52V41.44H30.52V43.44ZM30.52 49.6V51.6H32.52V49.6H30.52ZM11.2 49.6V47.6H9.2V49.6H11.2ZM11.2 73V75H13.2V73H11.2ZM4.4 73H2.4V75H4.4V73ZM4.4 22.2H31.92V18.2H4.4V22.2ZM29.92 20.2V26.4H33.92V20.2H29.92ZM31.92 24.4H11.2V28.4H31.92V24.4ZM9.2 26.4V43.44H13.2V26.4H9.2ZM11.2 45.44H30.52V41.44H11.2V45.44ZM28.52 43.44V49.6H32.52V43.44H28.52ZM30.52 47.6H11.2V51.6H30.52V47.6ZM9.2 49.6V73H13.2V49.6H9.2ZM11.2 71H4.4V75H11.2V71ZM6.4 73V20.2H2.4V73H6.4Z" fill="#E92929" mask="url(#path-1-outside-1_44861_9)"/>
<path d="M85.705 75H70.268L60.636 35.397H62.958L53.326 75H37.803L24.86 18.24H39.609L46.446 58.058H46.274L56.938 18.24H66.613L77.32 58.058H77.148L83.985 18.24H98.734L85.705 75Z" fill="#49AA26"/>
</svg>
