<svg version="1.0" xmlns="http://www.w3.org/2000/svg" width="32.000000pt" height="32.000000pt" viewBox="0 0 32 32" preserveAspectRatio="xMidYMid meet"><g transform="matrix(.1 0 0 -.1 0 512)" fill="#000000" stroke="none"><path d="M48.875 290.625c-2.875 -1.75 -4.5 -4.75 -4.5 -8.313 0 -1.688 0.313 -3.625 0.688 -4.375s10.563 -11.25 22.563 -23.313c21.75 -21.875 21.938 -22 20.438 -22.938 -13.688 -8.5 -18.438 -11.75 -26.063 -17.438 -16.438 -12.375 -31.313 -26.25 -43.75 -40.875 -7.438 -8.625 -8.5 -10.625 -8.063 -14.438 0.375 -3.313 3.813 -8 14.313 -19.563 29.563 -32.438 66.125 -56.875 99.688 -66.563 25.375 -7.375 50.875 -6.75 77.688 1.813 9.063 2.875 22.5 8.875 29.25 13l2.125 1.313 21.938 -21.938c23.688 -23.625 23.375 -23.313 28.938 -22.438 6.063 1 9.75 8.625 6.875 14.063 -1.125 2.063 -230.75 231.563 -232.688 232.563 -2.188 1.125 -7.125 0.813 -9.438 -0.563zm68.5 -85.813 12.625 -12.688 -2.5 -2.438c-3.688 -3.625 -7.25 -9.375 -9.438 -15.375 -2.563 -6.875 -3.188 -17.125 -1.563 -24.563 2.063 -9.063 8.125 -18.813 15.25 -24.438 4.938 -3.938 12.313 -7.5 18 -8.75 6.813 -1.563 16.938 -1.063 23.75 1.188 5.5 1.75 12.938 6.313 16.5 10l2.125 2.25 13 -12.938c7.125 -7.125 13 -13.188 13 -13.375 0 -0.625 -7.938 -4.625 -14.375 -7.125 -18.75 -7.438 -38.813 -10.375 -56 -8.188 -28.188 3.625 -56.25 17.625 -86.063 43 -6.813 5.813 -28.563 27.5 -28.563 28.5 0 0.25 3.188 3.875 7.063 8.063 11.563 12.625 25.313 24.688 39.75 34.813 7.563 5.313 22.938 14.75 24.063 14.75 0.375 0 6.375 -5.688 13.375 -12.688zm58.813 -62.688c-2.5 -2.625 -7.875 -5.188 -12.5 -6 -9.563 -1.688 -20.125 3.625 -24.813 12.438 -4.75 9.063 -3.563 19.813 3.125 27.375l1.938 2.25 17.063 -17 17.125 -17.063 -1.938 -2z"/><path d="M147.313 251.813c-14 -1.5 -17.75 -3.625 -18.438 -10.5 -0.375 -4.063 1.813 -8.125 5.25 -9.75 2.5 -1.188 3.813 -1.125 15.875 0.375 6.938 0.813 19.813 0.375 27.188 -0.938 27 -4.875 54.188 -19.125 81.875 -43 7.25 -6.25 27.813 -26.938 27.813 -28s-20.688 -21.813 -27.813 -27.938c-7.563 -6.5 -9.063 -8.563 -9.063 -12.563 0 -6.938 7.063 -11.875 13.25 -9.313 7.063 2.938 42.063 37.938 45.813 45.813 2.125 4.5 1.063 7.5 -5.375 15.25 -30.438 36.625 -71.125 65.313 -107.75 75.938 -16.125 4.625 -33.063 6.25 -48.625 4.625z"/></g></svg>